<svg width="228" height="26" viewBox="0 0 228 26" fill="none" xmlns="http://www.w3.org/2000/svg">
<path d="M0.314489 25L4.27472 1.14545H14.1287C15.9147 1.14545 17.4017 1.491 18.5898 2.1821C19.7778 2.8732 20.6204 3.83996 21.1173 5.08239C21.6143 6.32481 21.7269 7.76525 21.4551 9.40369C21.1911 11.0577 20.5971 12.4981 19.673 13.725C18.7567 14.9519 17.5764 15.9031 16.1321 16.5787C14.6878 17.2543 13.0455 17.592 11.2051 17.592H5.13665L5.89375 13.0494H10.9023C11.7797 13.0494 12.5368 12.898 13.1736 12.5952C13.8181 12.2923 14.3345 11.8691 14.7227 11.3256C15.111 10.782 15.3672 10.1414 15.4915 9.40369C15.608 8.666 15.5614 8.02926 15.3517 7.49347C15.142 6.94991 14.7654 6.53059 14.2219 6.23551C13.6861 5.94044 12.9872 5.7929 12.1253 5.7929H9.28324L6.08011 25H0.314489ZM31.4052 1.14545L27.445 25H21.6793L25.6396 1.14545H31.4052ZM55.2219 9.78807H49.4679C49.499 9.18239 49.4407 8.64271 49.2932 8.16903C49.1456 7.68759 48.9127 7.27604 48.5943 6.93438C48.2759 6.58494 47.8799 6.32093 47.4062 6.14233C46.9326 5.96373 46.3813 5.87443 45.7523 5.87443C44.5487 5.87443 43.4577 6.17339 42.4793 6.77131C41.5009 7.36922 40.6816 8.23115 40.0216 9.3571C39.3616 10.483 38.8995 11.8342 38.6355 13.4105C38.3948 14.9325 38.3987 16.2021 38.6472 17.2193C38.9034 18.2366 39.3771 19.0014 40.0682 19.5139C40.7593 20.0187 41.6367 20.271 42.7006 20.271C43.3917 20.271 44.0323 20.1895 44.6224 20.0264C45.2204 19.8556 45.76 19.611 46.2415 19.2926C46.7229 18.9742 47.1384 18.5899 47.4878 18.1395C47.845 17.6813 48.1206 17.1727 48.3148 16.6136H54.1153C53.828 17.6619 53.3544 18.7063 52.6943 19.7469C52.042 20.7796 51.2189 21.7153 50.225 22.554C49.2311 23.3926 48.0779 24.0643 46.7656 24.569C45.4533 25.0738 43.9935 25.3261 42.3861 25.3261C40.1885 25.3261 38.2938 24.833 36.702 23.8469C35.1179 22.8607 33.9725 21.4319 33.2659 19.5605C32.567 17.6813 32.435 15.4062 32.8699 12.7349C33.297 10.1491 34.1395 7.97102 35.3974 6.20057C36.6632 4.43011 38.2007 3.09063 40.0099 2.1821C41.827 1.27358 43.7644 0.819318 45.8222 0.819318C47.3131 0.819318 48.6526 1.02121 49.8406 1.425C51.0365 1.82102 52.0498 2.40341 52.8807 3.17216C53.7116 3.93314 54.3289 4.86885 54.7327 5.97926C55.1442 7.08968 55.3073 8.35928 55.2219 9.78807ZM56.0168 25L59.9771 1.14545H65.7427L64.0771 11.2324H64.3915L73.9427 1.14545H80.7333L70.5415 11.7915L76.9245 25H70.029L65.6961 15.6236L62.854 18.5705L61.7825 25H56.0168ZM79.0473 25L83.0075 1.14545H88.7732L85.605 20.3176H95.5288L94.7368 25H79.0473ZM97.7215 25L101.682 1.14545H118.315L117.523 5.82784H106.655L105.863 10.7199H115.88L115.088 15.4139H105.071L104.279 20.3176H115.147L114.354 25H97.7215ZM126.911 25H117.965L121.925 1.14545H130.603C133.026 1.14545 135.045 1.63854 136.66 2.62472C138.283 3.60312 139.428 5.00862 140.096 6.84119C140.772 8.666 140.9 10.8402 140.48 13.3639C140.077 15.8022 139.265 17.891 138.046 19.6304C136.835 21.3698 135.282 22.7015 133.387 23.6256C131.492 24.5419 129.333 25 126.911 25ZM124.535 20.0847H127.272C128.607 20.0847 129.788 19.8439 130.813 19.3625C131.845 18.8733 132.7 18.0929 133.375 17.0213C134.051 15.942 134.532 14.5248 134.82 12.7699C135.099 11.0926 135.087 9.76866 134.785 8.79801C134.49 7.8196 133.915 7.12074 133.061 6.70142C132.214 6.27434 131.108 6.06079 129.741 6.06079H126.876L124.535 20.0847ZM155.704 10.883L154.993 15.2625H143.963L144.674 10.883H155.704ZM181.553 9.78807H175.799C175.83 9.18239 175.772 8.64271 175.624 8.16903C175.477 7.68759 175.244 7.27604 174.926 6.93438C174.607 6.58494 174.211 6.32093 173.738 6.14233C173.264 5.96373 172.713 5.87443 172.084 5.87443C170.88 5.87443 169.789 6.17339 168.811 6.77131C167.832 7.36922 167.013 8.23115 166.353 9.3571C165.693 10.483 165.231 11.8342 164.967 13.4105C164.726 14.9325 164.73 16.2021 164.978 17.2193C165.235 18.2366 165.708 19.0014 166.399 19.5139C167.091 20.0187 167.968 20.271 169.032 20.271C169.723 20.271 170.364 20.1895 170.954 20.0264C171.552 19.8556 172.091 19.611 172.573 19.2926C173.054 18.9742 173.47 18.5899 173.819 18.1395C174.176 17.6813 174.452 17.1727 174.646 16.6136H180.447C180.159 17.6619 179.686 18.7063 179.026 19.7469C178.373 20.7796 177.55 21.7153 176.556 22.554C175.562 23.3926 174.409 24.0643 173.097 24.569C171.785 25.0738 170.325 25.3261 168.717 25.3261C166.52 25.3261 164.625 24.833 163.033 23.8469C161.449 22.8607 160.304 21.4319 159.597 19.5605C158.898 17.6813 158.766 15.4062 159.201 12.7349C159.628 10.1491 160.471 7.97102 161.729 6.20057C162.994 4.43011 164.532 3.09063 166.341 2.1821C168.158 1.27358 170.096 0.819318 172.153 0.819318C173.644 0.819318 174.984 1.02121 176.172 1.425C177.368 1.82102 178.381 2.40341 179.212 3.17216C180.043 3.93314 180.66 4.86885 181.064 5.97926C181.475 7.08968 181.639 8.35928 181.553 9.78807ZM186.899 25H180.703L192.712 1.14545H200.388L204.476 25H198.279L195.659 7.15568H195.472L186.899 25ZM187.645 15.6119H200.597L199.852 19.9915H186.899L187.645 15.6119ZM206.453 5.82784L207.245 1.14545H227.407L226.615 5.82784H219.382L216.214 25H210.53L213.698 5.82784H206.453Z" fill="#0D3356"/>
</svg>
